<svg width="958" height="402" viewBox="0 0 958 402" fill="none" xmlns="http://www.w3.org/2000/svg">
<rect width="958" height="400" fill="#DBB699"/>
<g clip-path="url(#clip0_2_97)">
<path d="M613.826 303.007C643.128 303.007 672.408 298.448 702.073 289.335C751.989 273.996 814.995 274.001 866.487 289.355C869.03 290.108 872.439 289.788 874.101 288.631C875.766 287.474 875.055 285.921 872.514 285.163C817.245 268.689 749.58 268.696 695.917 285.182C640.724 302.141 586.962 302.143 531.57 285.18C529.048 284.407 525.632 284.715 523.935 285.862C522.241 287.009 522.912 288.565 525.431 289.338C555.198 298.45 584.521 303.007 613.826 303.007Z" fill="#613D2B"/>
<path d="M872.513 319.752C817.239 303.278 749.574 303.285 695.917 319.772C640.718 336.735 586.956 336.733 531.57 319.769C529.048 318.996 525.632 319.302 523.937 320.452C522.24 321.599 522.912 323.154 525.431 323.927C555.195 333.039 584.516 337.598 613.82 337.598C643.122 337.596 672.403 333.039 702.073 323.925C751.983 308.583 814.989 308.592 866.487 323.944C869.03 324.697 872.441 324.377 874.103 323.22C875.765 322.063 875.054 320.51 872.513 319.752Z" fill="#613D2B"/>
<path d="M872.513 354.341C817.239 337.872 749.577 337.88 695.917 354.361C640.729 371.324 586.972 371.329 531.57 354.358C529.048 353.586 525.632 353.894 523.937 355.041C522.24 356.188 522.912 357.743 525.431 358.516C555.197 367.631 584.523 372.19 613.826 372.188C643.127 372.188 672.408 367.629 702.07 358.514C751.989 343.177 814.989 343.182 866.487 358.533C869.03 359.286 872.441 358.966 874.103 357.809C875.765 356.652 875.054 355.099 872.513 354.341Z" fill="#613D2B"/>
</g>
<defs>
<clipPath id="clip0_2_97">
<rect width="352" height="159" fill="white" transform="translate(523 243)"/>
</clipPath>
</defs>
</svg>
